# xmcd
#
# Track frame offsets:
#	150
#	20318
#	39138
#	54892
#	72272
#	95049
#	114391
#	132359
#	152000
#	171095
#	191305
#	208339
#	228289
#	242593
#	265216
#	278601
#	296466
#	312868
#	326896
#	344501
#
# Disc length: 4793 seconds
#
# Revision: 5
# Processed by: cddbd v1.5.2PL0 Copyright (c) Steve Scherf et al.
# Submitted via: EZCDAudioConverter 6.0.0.1
#
DISCID=1912b714
DTITLE=Various Artist - Akella Presents - Country Blues - vol.30  CD1  New!
DYEAR=2013
DGENRE=Blues
TTITLE0=Hans Theessink - Homeless
TTITLE1=Dire Straits - Six Blade Knife
TTITLE2=George Terry - It's Alright
TTITLE3=John Fogerty - Broken Down Cowboy
TTITLE4=Bo Ramsey - Can't Sleep
TTITLE5=Duffy Bishop - Buzzin'
TTITLE6=Tony Joe White - Don't Over Do It
TTITLE7=Mark Knopfler - True Love Will Never Find 
TTITLE8=Brian Kramer - Lucky You Are
TTITLE9=Michael Powers - You Got To Go Down
TTITLE10=Aynsley Lister - Crazy
TTITLE11=Pat McManus - Return of th G.Man
TTITLE12=Al Basile - Be A Woman
TTITLE13=Little Feat - Those Feat'll Steer Ya Wrong Sometimes
TTITLE14=Lynyrd Skynyrd - Skynyrd Family
TTITLE15=Ponty Bone - I Must Be Dreaming
TTITLE16=Gordie Tentrees - Mercy or Sin
TTITLE17=Solomon Burke - Atta Way To Go
TTITLE18=Big House - The Highway Is My Home
TTITLE19=Delta Moon - Get Gone
EXTD=
EXTT0=
EXTT1=
EXTT2=
EXTT3=
EXTT4=
EXTT5=
EXTT6=
EXTT7=
EXTT8=
EXTT9=
EXTT10=
EXTT11=
EXTT12=
EXTT13=
EXTT14=
EXTT15=
EXTT16=
EXTT17=
EXTT18=
EXTT19=
PLAYORDER=
